<?xml version="1.0" encoding="UTF-8" standalone="no"?>
<!-- Created with Inkscape (http://www.inkscape.org/) -->

<svg
   width="28.325069mm"
   height="36.390053mm"
   viewBox="0 0 28.325069 36.390053"
   version="1.1"
   id="svg5"
   xmlns:inkscape="http://www.inkscape.org/namespaces/inkscape"
   xmlns:sodipodi="http://sodipodi.sourceforge.net/DTD/sodipodi-0.dtd"
   xmlns="http://www.w3.org/2000/svg"
   xmlns:svg="http://www.w3.org/2000/svg">
  <sodipodi:namedview
     id="namedview7"
     pagecolor="#ffffff"
     bordercolor="#666666"
     borderopacity="1.0"
     inkscape:showpageshadow="2"
     inkscape:pageopacity="0.0"
     inkscape:pagecheckerboard="0"
     inkscape:deskcolor="#d1d1d1"
     inkscape:document-units="mm"
     showgrid="false" />
  <defs
     id="defs2">
    <clipPath
       clipPathUnits="userSpaceOnUse"
       id="clipPath4347">
      <rect
         style="fill:#ffffff;fill-opacity:1;stroke:none;stroke-width:1.473"
         id="rect4349"
         width="32.197754"
         height="43.869522"
         x="49.035843"
         y="102.15576" />
    </clipPath>
  </defs>
  <g
     inkscape:label="Layer 1"
     inkscape:groupmode="layer"
     id="layer1"
     transform="translate(-51.557111,-106.11129)">
    <rect
       style="fill:#16a34a;fill-opacity:1;stroke:none;stroke-width:1.473"
       id="rect111"
       width="117.5824"
       height="94.6539"
       x="30.059744"
       y="57.672501"
       clip-path="url(#clipPath4347)"
       transform="matrix(0.87972181,0,0,0.82950642,8.4192112,21.372424)"
       inkscape:export-filename="logo.svg"
       inkscape:export-xdpi="148.09"
       inkscape:export-ydpi="148.09" />
    <g
       aria-label="ó±¤"
       id="text3358"
       style="font-size:36.4056px;line-height:1.25;font-family:nasin-nanpa;-inkscape-font-specification:'nasin-nanpa, Normal';letter-spacing:0px;word-spacing:0px;stroke-width:0.487576">
      <path
         d="m 71.673314,114.22172 c 1.49263,0 2.73042,-1.23779 2.73042,-2.73042 0,-1.49263 -1.23779,-2.73042 -2.73042,-2.73042 -1.49263,0 -2.73042,1.23779 -2.73042,2.73042 0,1.49263 1.23779,2.73042 2.73042,2.73042 z m -3.167287,19.29497 c -0.182028,0.61889 -0.400462,1.23779 -0.691707,1.74747 -0.728112,1.347 -1.601846,1.89309 -2.511986,1.89309 -0.91014,0 -1.783875,-0.54609 -2.511987,-1.89309 -0.291244,-0.50968 -0.509678,-1.12858 -0.691706,-1.74747 z m -6.844253,-7.28112 h 7.28112 v 3.64056 h -7.28112 z m 6.844253,-3.64056 h -6.407386 c 0.182028,-0.6189 0.400462,-1.23779 0.691706,-1.74747 0.728112,-1.34701 1.601847,-1.89309 2.511987,-1.89309 0.91014,0 1.783874,0.54608 2.511986,1.89309 0.291245,0.50968 0.509679,1.12857 0.691707,1.74747 z m -3.203693,-7.28112 c -2.73042,0 -4.587106,1.82028 -5.679274,3.74977 -0.58249,1.09217 -1.019357,2.29356 -1.274196,3.53135 H 55.07236 c -1.019357,0 -1.82028,0.80092 -1.82028,1.82028 0,1.01935 0.800923,1.82028 1.82028,1.82028 h 2.948854 v 3.64056 H 55.07236 c -1.019357,0 -1.82028,0.80092 -1.82028,1.82028 0,1.01935 0.800923,1.82028 1.82028,1.82028 h 3.276504 c 0.254839,1.23779 0.691706,2.43917 1.274196,3.53134 1.092168,1.9295 2.948854,3.74978 5.679274,3.74978 2.73042,0 4.587106,-1.82028 5.679274,-3.74978 0.582489,-1.09217 1.019357,-2.29355 1.274196,-3.53134 h 3.276504 c 1.019357,0 1.82028,-0.80093 1.82028,-1.82028 0,-1.01936 -0.800923,-1.82028 -1.82028,-1.82028 h -2.948854 v -3.64056 h 2.948854 c 1.019357,0 1.82028,-0.80093 1.82028,-1.82028 0,-1.01936 -0.800923,-1.82028 -1.82028,-1.82028 h -3.276504 c -0.254839,-1.23779 -0.691707,-2.43918 -1.274196,-3.53135 -1.092168,-1.92949 -2.948854,-3.74977 -5.679274,-3.74977 z m -3.64056,-3.82259 c 0,-1.49263 -1.237791,-2.73042 -2.73042,-2.73042 -1.49263,0 -2.730421,1.23779 -2.730421,2.73042 0,1.49263 1.237791,2.73042 2.730421,2.73042 1.492629,0 2.73042,-1.23779 2.73042,-2.73042 z"
         style="fill:#ffffff"
         id="path4402" />
    </g>
  </g>
</svg>
